# xmcd
#
# Track frame offsets: 
#        150
#        35667
#        77700
#        96737
#        125192
#        154492
#        187797
#        219252
#        224490
#        227990
#        230827
#
# Disc length: 3228 seconds
#
# Revision: 7
# Processed by: cddbd v1.5.2PL0 Copyright (c) Steve Scherf et al.
# Submitted via: ExactAudioCopy v1.1
#
DISCID=a70c9a0b
DTITLE=Stan Getz - The Steamer
DYEAR=1956
DGENRE=Jazz
TTITLE0=Blues For Mary Jane (mono)
TTITLE1=There Will Never Be Another You (mono)
TTITLE2=You're Blasé (mono)
TTITLE3=Too Close For Comfort (mono)
TTITLE4=Like Someone In Love (mono)
TTITLE5=How About You (mono)
TTITLE6=How About You (alt - take 3)
TTITLE7=There Will Never Be Another You (alt - takes 1 and 2 - false sta
TTITLE7=rts) (mono)
TTITLE8=You're Blasé (alt - take 1 - false start) (mono)
TTITLE9=Like Someone In Love (alt - take 1 - false start) (mono)
TTITLE10=How About You (alt - takes 1, 2 and 4 - false starts) (mono)
EXTD=Recorded 24 November1956 at Radio Recorders, Hollywood\nStanGetz:
EXTD=Tenor saxophone\nLou Levy: Piano\nLeroy Vinnegar: Bass\nStan Lev
EXTD=ey: Drums YEAR: 1999
EXTT0=
EXTT1=
EXTT2=
EXTT3=
EXTT4=
EXTT5=
EXTT6=
EXTT7=
EXTT8=
EXTT9=
EXTT10=
PLAYORDER=
